<svg width="389" height="577" viewBox="0 0 389 577" fill="none" xmlns="http://www.w3.org/2000/svg">
<path d="M303.023 175.546C275.422 241.41 212.879 226.006 180.581 210.76C148.283 195.515 158.46 186.201 186.062 120.337C213.663 54.4724 262.221 13.4377 294.519 28.6833C326.818 43.9289 330.625 109.682 303.023 175.546Z" fill="#6B0000"/>
<path d="M208.875 177.793C239.61 242.075 232.35 182.897 200.828 199.874C169.305 216.85 164.464 203.958 89.6971 220.387C58.962 156.105 64.6257 109.114 96.148 92.1378C127.67 75.1614 178.14 113.51 208.875 177.793Z" fill="#6B0000"/>
<path d="M9.85449 217.041H308.907C348.12 217.041 379.907 248.828 379.907 288.041V567.205H80.8545C41.6423 567.205 9.85449 535.417 9.85449 496.205V217.041Z" stroke="#6B0000" stroke-width="18"/>
<path d="M135.809 293.121V488.561H110.329V293.121H135.809ZM332.56 293.121V316.921H265.08V488.561H239.6V316.921H172.12V293.121H332.56Z" fill="#6B0000"/>
</svg>
