<svg width="81" height="80" viewBox="0 0 81 80" fill="none" xmlns="http://www.w3.org/2000/svg">
<path d="M68 57.4998C68 62.7465 63.7467 66.9998 58.5 66.9998C53.2533 66.9998 49 62.7465 49 57.4998C49 52.2531 53.2533 47.9998 58.5 47.9998C63.7467 47.9998 68 52.2531 68 57.4998Z" fill="#800000"/>
<path d="M68 57.4998C68 62.7465 63.7467 66.9998 58.5 66.9998C53.2533 66.9998 49 62.7465 49 57.4998C49 52.2531 53.2533 47.9998 58.5 47.9998C63.7467 47.9998 68 52.2531 68 57.4998Z" fill="#800000"/>
<path d="M33 21.9998C33 27.5226 28.5228 31.9998 23 31.9998C17.4772 31.9998 13 27.5226 13 21.9998C13 16.4769 17.4772 11.9998 23 11.9998C28.5228 11.9998 33 16.4769 33 21.9998Z" fill="#800000"/>
<path d="M33 57.4998C33 62.7465 28.5228 66.9998 23 66.9998C17.4772 66.9998 13 62.7465 13 57.4998C13 52.2531 17.4772 47.9998 23 47.9998C28.5228 47.9998 33 52.2531 33 57.4998Z" fill="#800000"/>
<path d="M68 22.9998C68 28.5226 63.5228 32.9998 58 32.9998C52.4772 32.9998 48 28.5226 48 22.9998C48 17.4769 52.4772 12.9998 58 12.9998C63.5228 12.9998 68 17.4769 68 22.9998Z" fill="#800000"/>
<path d="M7 5.99976L75 73.9998" stroke="#800000" stroke-width="6"/>
<path d="M23 56.9998L58 23" stroke="#800000" stroke-width="6"/>
<path d="M14 21.9998H4" stroke="#800000" stroke-width="1.5"/>
<path d="M75.5 64.5L66 57H75.5V64.5Z" fill="#800000" stroke="#800000"/>
<path d="M5 14L14.5 21.5H5V14Z" fill="#800000" stroke="#800000"/>
<path d="M16 5L23.5 14.5V5L16 5Z" fill="#800000" stroke="#800000"/>
<path d="M64.6679 73.4985L57 64.1335L57.1691 73.632L64.6679 73.4985Z" fill="#800000" stroke="#800000"/>
<path d="M6.49976 5.5H58.9998C68.1124 5.5 75.4998 12.8873 75.4998 22V74.5H22.9998C13.8871 74.5 6.49976 67.1127 6.49976 58V5.5Z" stroke="#800000" stroke-width="5"/>
<path d="M49.5 16.5C49.5 8.21573 56.2157 1.5 64.5 1.5C72.7843 1.5 79.5 8.21573 79.5 16.5C79.5 24.7843 72.7843 31.5 64.5 31.5H49.5V16.5Z" stroke="#800000" stroke-width="3"/>
<path d="M31.5 63.5C31.5 71.7843 24.7843 78.5 16.5 78.5C8.21573 78.5 1.5 71.7843 1.5 63.5C1.5 55.2157 8.21573 48.5 16.5 48.5H31.5V63.5Z" stroke="#800000" stroke-width="3"/>
</svg>
